<svg height="127.99993mm" viewBox="0 0 127.99892 127.99993" width="127.99892mm" xmlns="http://www.w3.org/2000/svg" xmlns:xlink="http://www.w3.org/1999/xlink"><radialGradient id="a" cx="160.08772" cy="250.45184" gradientTransform="matrix(7.216863 -7.4850309 9.9478954 9.3362117 -3397.7241 -884.01553)" gradientUnits="userSpaceOnUse" r="19.441917"><stop offset="0" stop-color="#fff"/><stop offset="1" stop-color="#fff" stop-opacity="0"/></radialGradient><g fill="#0075ee" transform="matrix(2.37612073 0 0 2.38018019 -661.179649 -57.887421)"><path d="m288.32799 49.774041c1.10912-.54593 5.48819-5.03622 6.65333-6.370083.4584-.421688-8.21473.423514-7.54043-.602679 3.69611-.282653 5.49257-.125914 7.99822-1.107275 3.22904-1.264683 7.34697-5.108934 8.52951-5.950675.0442-.409865-9.67438 1.549717-9.30677.439762 3.76642-.58518 9.62572-1.580742 10.90394-2.694765 1.03391-.942895 4.98011-6.976283 3.10237-8.619412-1.47451-1.134024-17.05995-.825137-18.98661 3.991177-.60724 1.013851-2.24699 6.888639-2.74338 7.195981-.78304.831219 1.44558-7.184334 1.20088-6.912811-3.2444 1.524872-7.36822 6.314095-8.41387 10.736474-.52318 2.212703 1.52658 6.074605 1.35922 6.684188-.34849.739017-2.1618-4.607906-2.22233-4.30782-.0437 1.733727-.62527 5.4424-.60122 8.73375.0255 3.488829.47155 7.391934 2.149 10.732433.46427.924563 3.48544-.945388 3.31813-1.306913-1.28478-2.718936-2.49407-6.038259-2.1777-8.839126.1821-1.523844.42909-3.043665.86992-4.399555.88595-2.977749 2.5827-5.752476 4.30265-8.062286.94293-1.177448 1.93673-2.32004 3.07298-3.323561 1.12825-1.008826 2.35688-1.916978 3.6762-2.665515 1.30861-.763579 6.82592-3.614474 8.26618-4.068533-2.67353 1.37819-9.2617 5.279626-11.38805 7.305787-1.06401 1.010101-2.03852 2.104641-2.93432 3.256243-1.77023 2.416596-3.11444 5.065577-3.90915 7.731646-.99722 3.518863-1.47502 7.612981.84035 11.174364.23444-.413897-.73688-2.309564-.61347-3.113614.84574-.295003 2.86221-2.0712 3.64527-3.892293-.80153-.0034-3.21131.605761-3.12514-.112441 1.18415-.155574 2.54242-.737863 4.07429-1.632448z"/><path d="m-230.263 138.06132c-.32742-.52044-1.2743-2.09508-1.57818-2.62423-3.11965-5.43225-6.13331-13.56514-7.06741-23.59323-.93826-10.07272.33295-20.873098 4.1879-31.355827 3.64457-9.910635 9.17687-18.408127 15.71659-25.244566 6.53423-6.830693 13.43151-11.366548 19.58274-14.617756 2.98533-1.577886 5.69995-2.79399 7.83985-3.762828 9.28156-4.202221 23.96001-8.691142 42.16221-5.478336 15.96317 2.817602 32.86679 11.533467 44.37471 27.898634 5.28342 6.351001 9.180467 13.396126 11.697183 20.478354 2.488723 7.003453 3.344822 13.268657 3.300929 17.591151-.0084.826033-.103501 3.303574-.15866 4.128594a5.7448985 5.7448985 90 0 0 11.464204.76646c.06388-.9555.173959-3.822959.183661-4.778386.05088-5.010932.223522-12.204171-1.019057-20.967429-1.249503-8.812092-3.82487-18.360789-8.527148-27.876832-12.987872-22.584925-34.103742-36.525193-55.623662-42.2442885-24.56896-6.52940318-45.92458-1.8015307-59.65615 4.4156275-3.14279 1.422942-6.86522 3.4785-10.84875 6.287595-8.20717 5.787512-16.36648 13.996489-22.85513 24.789506-6.46839 10.759313-10.53073 22.856102-11.98847 35.346553-1.54141 13.20748-.0287 25.441164 3.0815 36.014754 3.104 10.55263 7.47586 18.46571 10.74549 24.1591.3196.55653 1.31541 2.21254 1.65971 2.75982a1.9646965 1.9646965 90 0 0 3.32594-2.09244z" transform="matrix(-.26574449 .1584402 -.1587109 -.26529126 275.77005 101.45146)"/></g><path d="m189.02344 21.609375a260.50912 202.10297 41.941624 0 0 -85.50977 17.175781c-.34006.674936-.65966 1.357002-.9375 2.052735-5.453399 9.120563-20.180804 61.969529-24.63867 64.734379-5.989567 6.36892 7.6019-44.858145 10.417969-58.720708a260.50912 202.10297 41.941624 0 0 -34.275391 26.833985 260.50912 202.10297 41.941624 0 0 -41.333984 79.373043c2.177088 19.31709 13.829409 42.63239 12.621094 47.04102-2.141809 4.5497-10.366288-16.33374-15.5683599-29.23633a260.50912 202.10297 41.941624 0 0 94.4746119 226.54883 260.50912 202.10297 41.941624 0 0 177.06445 83.07422c10.31076-1.65466 20.41422-3.89975 30.2207-6.70508 67.9416-19.43592 112.16852-61.15891 136.07813-95.56836 5.47224-7.87541 11.42661-18.0869 16.92969-30.46875 6.69229-15.05775 12.12445-32.11876 15.48828-50.75976a260.50912 202.10297 41.941624 0 0 -63.99414-156.77344c2.91036 8.69725 5.28214 17.718 7.03125 27.01367 5.42789 28.8469 4.33783 57.01173-1.52539 82.64844-5.85827 25.61515-15.85417 46.27218-25.90039 62.79883-4.87563 8.02075-9.62155 14.79208-13.34766 20.15429-16.16133 23.25803-44.79278 54.8915-92.8125 73.16797-42.11286 16.02831-94.8781 19.32175-145.66797-3.33203-21.66134-7.62641-41.00286-18.88622-57.103515-32.20117-15.92162-13.16685-26.895022-26.89894-32.951172-37.27735-1.014737-1.73887-3.49266-6.27765-4.837891-8.83007-11.476555-24.394-22.2222-54.08549-19.394531-79.16211 1.635426-13.70844 3.853529-27.38059 7.8125-39.57813 7.956348-26.7877 23.19437-51.75034 38.640625-72.5293 8.468044-10.59226 17.393399-20.87081 27.597654-29.89843 10.13232-9.075365 21.16738-17.244715 33.01563-23.978519 11.75214-6.86912 61.29999-32.514913 74.23437-36.599609-24.00995 12.39814-83.17556 47.495403-102.27148 65.722658-9.555444 9.08682-18.306689 18.9332-26.351564 29.29297-15.897731 21.73959-27.970365 45.56889-35.107422 69.55273-8.955579 31.65554-13.246584 68.48538 7.546875 100.52344 2.105471-3.7234-6.61808-20.77656-5.509766-28.00977 7.595294-2.65382 25.705979-18.6312 32.738281-35.01367-7.198179-.0307-28.84026 5.44921-28.066406-1.01172 10.634367-1.39953 22.832654-6.63791 36.589844-14.68554 9.960578-4.91118 49.286378-45.30532 59.749998-57.30469 4.11674-3.79349-73.772403 3.80972-67.716795-5.42188 33.193335-2.54273 49.325855-1.13265 71.828125-9.96093 28.9988-11.37704 65.98162-45.96093 76.60156-53.53321.39667-3.68712-86.88335 13.94214-83.58203 3.95703 33.82476-5.26424 86.44652-14.220482 97.92578-24.242184 5.44892-4.977776 19.89352-25.724998 27.5-45.007812a260.50912 202.10297 41.941624 0 0 -83.70312-15.855469z" fill="url(#a)" stroke-width="3.237034" transform="matrix(.26458334 0 0 .26458334 -.001079 -.00001)"/></svg>